Coordinates
version=1
nRows=28
nColumns=38
inDegrees=no

Units are S.I. units (second, meters, Newtons, ...)
If the header above contains a line with 'inDegrees', this indicates whether rotational values are in degrees (yes) or radians (no).

endheader
time	pelvis_tilt	pelvis_list	pelvis_rotation	pelvis_tx	pelvis_ty	pelvis_tz	hip_flexion_r	hip_adduction_r	hip_rotation_r	knee_angle_r	ankle_angle_r	subtalar_angle_r	mtp_angle_r	hip_flexion_l	hip_adduction_l	hip_rotation_l	knee_angle_l	ankle_angle_l	subtalar_angle_l	mtp_angle_l	lumbar_extension	lumbar_bending	lumbar_rotation	arm_flex_r	arm_add_r	arm_rot_r	elbow_flex_r	pro_sup_r	wrist_flex_r	wrist_dev_r	arm_flex_l	arm_add_l	arm_rot_l	elbow_flex_l	pro_sup_l	wrist_flex_l	wrist_dev_l
2.245	-0.105117	0.0589875	-0.0773517	2.26602	0.997354	-0.495208	0.479912	-0.113197	0.0959094	1.26204	0.0284692	0.0328581	-3.4838e-09	0.245862	0.0638874	-0.0854123	0.305276	0.155912	-0.00686645	-3.6388e-09	-0.12694	-0.0843793	0.0243826	-0.0330517	-0.137446	0.0658164	0.725536	1.43474	-3.18759e-10	-5.27954e-10	-0.0841025	-0.25756	0.125327	0.766055	1.42502	1.33545e-10	-8.64009e-10
2.25	-0.103232	0.0565391	-0.0753933	2.27179	0.998192	-0.495581	0.488645	-0.111451	0.0898322	1.25623	0.0330662	0.0322352	-3.4838e-09	0.233175	0.0634796	-0.0809513	0.296881	0.157154	-0.00616219	-3.6388e-09	-0.129366	-0.080979	0.0198007	-0.038343	-0.139423	0.060907	0.726844	1.4349	-3.18759e-10	-5.27954e-10	-0.081201	-0.257925	0.125773	0.775531	1.42139	1.33545e-10	-8.64009e-10
2.255	-0.101234	0.0541708	-0.0733651	2.27755	0.998982	-0.49595	0.49696	-0.109981	0.0835309	1.24954	0.0376719	0.0315632	-3.4838e-09	0.220355	0.0630835	-0.0765095	0.28842	0.158316	-0.0053797	-3.6388e-09	-0.131942	-0.0776615	0.0151705	-0.043772	-0.141452	0.0559488	0.728481	1.43518	-3.18759e-10	-5.27954e-10	-0.0782953	-0.258314	0.126209	0.785192	1.41779	1.33545e-10	-8.64009e-10
2.26	-0.0991329	0.0518824	-0.0712906	2.28329	0.999722	-0.496311	0.50486	-0.108757	0.0770534	1.24198	0.0422887	0.0308436	-3.4838e-09	0.207425	0.062687	-0.0721103	0.279922	0.159408	-0.00451699	-3.6388e-09	-0.134661	-0.0744298	0.0105267	-0.0493192	-0.143522	0.0509882	0.730385	1.43556	-3.18759e-10	-5.27954e-10	-0.075364	-0.258734	0.126665	0.795016	1.41425	1.33545e-10	-8.64009e-10
2.265	-0.0969408	0.0496715	-0.0691933	2.28903	1.00041	-0.496662	0.512352	-0.107748	0.0704466	1.23355	0.0469155	0.0300792	-3.4838e-09	0.194412	0.0622773	-0.0677741	0.271416	0.16044	-0.00357687	-3.6388e-09	-0.137511	-0.0712852	0.00590418	-0.0549652	-0.145625	0.0460692	0.732495	1.436	-3.18759e-10	-5.27954e-10	-0.0723881	-0.259191	0.127169	0.804978	1.41079	1.33545e-10	-8.64009e-10
2.27	-0.0946736	0.0475347	-0.0670956	2.29475	1.00105	-0.496999	0.519442	-0.106919	0.0637548	1.22425	0.0515467	0.0292734	-3.4838e-09	0.181347	0.0618424	-0.0635188	0.262931	0.161425	-0.00256613	-3.6388e-09	-0.140474	-0.0682273	0.0013368	-0.060692	-0.147751	0.0412321	0.734754	1.43645	-3.18759e-10	-5.27954e-10	-0.0693511	-0.25969	0.127745	0.815054	1.40741	1.33545e-10	-8.64009e-10
2.275	-0.0923538	0.0454685	-0.0650177	2.30047	1.00163	-0.49732	0.526143	-0.106238	0.0570202	1.21408	0.0561713	0.0284311	-3.4838e-09	0.168267	0.0613725	-0.0593593	0.254495	0.162371	-0.00149464	-3.6388e-09	-0.143528	-0.0652555	-0.00314427	-0.0664825	-0.149888	0.0365091	0.737105	1.43689	-3.18759e-10	-5.27954e-10	-0.0662397	-0.260233	0.128409	0.825224	1.40414	1.33545e-10	-8.64009e-10
2.28	-0.0900097	0.0434704	-0.0629767	2.30616	1.00215	-0.497623	0.532472	-0.105676	0.0502812	1.203	0.0607713	0.0275577	-3.4838e-09	0.155216	0.0608606	-0.0553078	0.246133	0.16329	-0.000373912	-3.6388e-09	-0.146642	-0.0623694	-0.00751194	-0.0723212	-0.152025	0.0319268	0.739493	1.43732	-3.18759e-10	-5.27954e-10	-0.0630442	-0.260821	0.129171	0.835468	1.401	1.33545e-10	-8.64009e-10
2.285	-0.0876761	0.0415396	-0.060985	2.31185	1.00261	-0.497906	0.53845	-0.105205	0.043572	1.19098	0.0653209	0.0266592	-3.4838e-09	0.142245	0.060303	-0.051373	0.237872	0.16419	0.000783885	-3.6388e-09	-0.149779	-0.0595692	-0.0117442	-0.078194	-0.154149	0.0275069	0.741869	1.4377	-3.18759e-10	-5.27954e-10	-0.0597578	-0.261454	0.130038	0.845766	1.398	1.33545e-10	-8.64009e-10
2.29	-0.0853952	0.0396777	-0.0590511	2.31751	1.00301	-0.498167	0.544104	-0.104805	0.0369237	1.17799	0.0697858	0.0257422	-3.4838e-09	0.129414	0.0597007	-0.0475613	0.229735	0.165079	0.00196669	-3.6388e-09	-0.152893	-0.0568573	-0.0158243	-0.0840889	-0.156247	0.0232627	0.744186	1.43802	-3.18759e-10	-5.27954e-10	-0.0563781	-0.262131	0.13101	0.856103	1.39516	1.33545e-10	-8.64009e-10
2.295	-0.0832133	0.0378887	-0.0571796	2.32316	1.00335	-0.498406	0.549462	-0.104462	0.0303641	1.16397	0.0741231	0.024813	-3.4838e-09	0.116786	0.0590584	-0.0438766	0.221746	0.165964	0.00316368	-3.6388e-09	-0.155935	-0.0542379	-0.0197406	-0.0899953	-0.158303	0.0192036	0.746403	1.43828	-3.18759e-10	-5.27954e-10	-0.0529058	-0.262848	0.132086	0.866463	1.39249	1.33545e-10	-8.64009e-10
2.3	-0.0811768	0.0361789	-0.0553732	2.3288	1.00362	-0.498623	0.554547	-0.104162	0.0239191	1.14885	0.078282	0.0238772	-3.4838e-09	0.104423	0.0583846	-0.0403216	0.213923	0.166849	0.00436612	-3.6388e-09	-0.158851	-0.0517173	-0.0234851	-0.0959044	-0.160305	0.0153357	0.748481	1.43845	-3.18759e-10	-5.27954e-10	-0.0493451	-0.263602	0.133259	0.876833	1.38999	1.33545e-10	-8.64009e-10
2.305	-0.0793298	0.0345566	-0.0536335	2.33442	1.00382	-0.498817	0.559376	-0.103898	0.0176147	1.13258	0.0822051	0.0229399	-3.4838e-09	0.0923815	0.0576912	-0.0368992	0.206283	0.167736	0.00556784	-3.6388e-09	-0.161594	-0.0493047	-0.027052	-0.101809	-0.162236	0.0116589	0.750388	1.4385	-3.18759e-10	-5.27954e-10	-0.0457037	-0.264388	0.134519	0.887201	1.38768	1.33545e-10	-8.64009e-10
2.31	-0.0777079	0.0330308	-0.0519627	2.34002	1.00394	-0.498988	0.563954	-0.10366	0.0114772	1.11507	0.0858306	0.0220043	-3.38068e-09	0.0807038	0.0569911	-0.033613	0.198834	0.168626	0.00676639	-3.58351e-09	-0.164121	-0.0470103	-0.0304362	-0.107705	-0.164083	0.00817005	0.752095	1.43841	-3.20316e-10	-5.49334e-10	-0.0419915	-0.2652	0.135855	0.897556	1.38554	1.35519e-10	-8.94234e-10
2.315	-0.0763368	0.0316094	-0.050363	2.34561	1.004	-0.499135	0.568268	-0.103439	0.00553223	1.09625	0.0890944	0.0210716	-3.38068e-09	0.0694174	0.0562972	-0.030467	0.19158	0.169515	0.00796313	-3.58351e-09	-0.166401	-0.0448438	-0.0336337	-0.113586	-0.165831	0.00486227	0.753578	1.43815	-3.20316e-10	-5.49334e-10	-0.0382202	-0.266033	0.137256	0.907887	1.38357	1.35519e-10	-8.94234e-10
2.32	-0.0752318	0.0302978	-0.0488359	2.35118	1.00399	-0.499258	0.572294	-0.103222	-0.000196188	1.07604	0.0919342	0.0201407	-3.38068e-09	0.0585346	0.0556194	-0.0274648	0.184518	0.170402	0.0091634	-3.58351e-09	-0.168414	-0.0428125	-0.0366414	-0.119449	-0.167465	0.00171922	0.75482	1.43773	-3.20316e-10	-5.49334e-10	-0.0344021	-0.266878	0.138707	0.918183	1.38178	1.35519e-10	-8.94234e-10
2.325	-0.0744001	0.029099	-0.0473825	2.35675	1.00391	-0.499357	0.576	-0.102995	-0.00568578	1.05437	0.0942922	0.019208	-3.38068e-09	0.0480574	0.0549654	-0.0246093	0.177647	0.171282	0.0103749	-3.58351e-09	-0.170149	-0.0409211	-0.0394575	-0.12529	-0.16897	-0.00128155	0.755806	1.43717	-3.20316e-10	-5.49334e-10	-0.0305495	-0.26773	0.140191	0.928433	1.38016	1.35519e-10	-8.94234e-10
2.33	-0.0738421	0.0280128	-0.0460036	2.3623	1.00376	-0.499431	0.579347	-0.102737	-0.0109158	1.03118	0.0961204	0.0182682	-3.38068e-09	0.0379789	0.0543396	-0.0219022	0.17096	0.172152	0.0116066	-3.58351e-09	-0.171602	-0.039171	-0.0420812	-0.131106	-0.170331	-0.00416417	0.756525	1.43649	-3.20316e-10	-5.49334e-10	-0.0266742	-0.268579	0.141696	0.938624	1.37873	1.35519e-10	-8.94234e-10
2.335	-0.07355	0.0270359	-0.0447008	2.36786	1.00354	-0.499479	0.582295	-0.102427	-0.0158663	1.00643	0.0973843	0.0173142	-3.38068e-09	0.0282824	0.0537425	-0.0193459	0.164453	0.173011	0.0128695	-3.58351e-09	-0.17278	-0.03756	-0.044511	-0.136891	-0.171537	-0.00695518	0.756972	1.43573	-3.20316e-10	-5.49334e-10	-0.022787	-0.269418	0.143207	0.948742	1.37748	1.35519e-10	-8.94234e-10
2.34	-0.07351	0.0261624	-0.0434776	2.37341	1.00327	-0.4995	0.584804	-0.102039	-0.0205172	0.980088	0.0980666	0.0163387	-3.38068e-09	0.0189436	0.0531723	-0.0169439	0.158118	0.173856	0.0141752	-3.58351e-09	-0.173695	-0.036083	-0.0467445	-0.142641	-0.172576	-0.00967835	0.757143	1.4349	-3.20316e-10	-5.49334e-10	-0.018897	-0.27024	0.144715	0.95877	1.37639	1.35519e-10	-8.94234e-10
2.345	-0.073703	0.0253856	-0.0423394	2.37896	1.00294	-0.499494	0.586835	-0.101543	-0.024846	0.952159	0.0981696	0.015335	-3.38068e-09	0.00993172	0.0526256	-0.014701	0.151948	0.174687	0.0155346	-3.58351e-09	-0.174365	-0.0347336	-0.0487769	-0.14835	-0.17344	-0.0123543	0.757038	1.434	-3.20316e-10	-5.49334e-10	-0.0150125	-0.271036	0.146211	0.968692	1.37543	1.35519e-10	-8.94234e-10
2.35	-0.0741061	0.0246986	-0.0412937	2.38451	1.00255	-0.49946	0.588356	-0.100914	-0.0288278	0.922659	0.0977152	0.0142978	-3.38068e-09	0.00121194	0.0520996	-0.0126242	0.145935	0.175503	0.0169585	-3.58351e-09	-0.174813	-0.0335054	-0.0506018	-0.154011	-0.174121	-0.0150046	0.756659	1.43304	-3.20316e-10	-5.49334e-10	-0.0111406	-0.271799	0.147688	0.978486	1.37459	1.35519e-10	-8.94234e-10
2.355	-0.074693	0.0240958	-0.040349	2.39007	1.0021	-0.499396	0.58934	-0.100127	-0.0324353	0.891628	0.0967433	0.0132243	-3.38068e-09	-0.00725401	0.0515926	-0.0107211	0.140074	0.176304	0.0184565	-3.58351e-09	-0.175063	-0.0323925	-0.0522121	-0.159617	-0.174614	-0.0176477	0.756011	1.43203	-3.20316e-10	-5.49334e-10	-0.00728786	-0.272519	0.149139	0.988131	1.37387	1.35519e-10	-8.94234e-10
2.36	-0.075437	0.023574	-0.0395122	2.39563	1.00161	-0.499301	0.58977	-0.0991642	-0.0356405	0.859127	0.0953076	0.0121144	-3.38068e-09	-0.0155032	0.0511061	-0.00899789	0.134357	0.177089	0.0200367	-3.58351e-09	-0.17514	-0.0313909	-0.0536025	-0.165161	-0.174918	-0.0202988	0.755098	1.43097	-3.20316e-10	-5.49334e-10	-0.00345973	-0.273189	0.150559	0.997602	1.37324	1.35519e-10	-8.94234e-10
2.365	-0.076316	0.0231346	-0.038785	2.40121	1.00107	-0.499177	0.589641	-0.0980195	-0.0384177	0.825239	0.0934704	0.0109713	-3.38068e-09	-0.0235636	0.0506465	-0.00745559	0.128785	0.177859	0.0217042	-3.58351e-09	-0.175065	-0.0305	-0.0547738	-0.170634	-0.175029	-0.0229744	0.753927	1.42987	-3.20316e-10	-5.49334e-10	0.000338367	-0.273802	0.151942	1.00687	1.37271	1.35519e-10	-8.94234e-10
2.37	-0.077319	0.0227844	-0.0381604	2.40681	1.00048	-0.499023	0.58897	-0.0967027	-0.0407472	0.790065	0.0912964	0.00980164	-3.38068e-09	-0.0314451	0.050226	-0.00608552	0.123363	0.178614	0.0234588	-3.58351e-09	-0.174846	-0.0297235	-0.055737	-0.176027	-0.174948	-0.0256874	0.752504	1.42878	-3.20316e-10	-5.49334e-10	0.0041013	-0.274351	0.153281	1.01592	1.37228	1.35519e-10	-8.94234e-10
2.375	-0.0784525	0.0225374	-0.0376179	2.41241	0.999849	-0.498842	0.587802	-0.0952435	-0.0426206	0.753731	0.0888483	0.00861561	-3.38068e-09	-0.0391294	0.0498639	-0.00486473	0.118112	0.179355	0.025293	-3.58351e-09	-0.174474	-0.02907	-0.056518	-0.181331	-0.174676	-0.028447	0.750836	1.42769	-3.20316e-10	-5.49334e-10	0.00782399	-0.274834	0.154574	1.02471	1.37196	1.35519e-10	-8.94234e-10
2.38	-0.0797477	0.0224147	-0.0371207	2.41804	0.999163	-0.498639	0.586218	-0.093694	-0.0440445	0.716379	0.086183	0.00742716	-3.38068e-09	-0.0465597	0.0495866	-0.00375247	0.113065	0.180089	0.0271903	-3.58351e-09	-0.173916	-0.0285536	-0.0571609	-0.186536	-0.174211	-0.031262	0.74893	1.42665	-3.20316e-10	-5.49334e-10	0.0115011	-0.275248	0.155814	1.03323	1.37175	1.35519e-10	-8.94234e-10
